<?xml version="1.0" encoding="UTF-8" standalone="no"?>
<svg
   xmlns:dc="http://purl.org/dc/elements/1.1/"
   xmlns:cc="http://creativecommons.org/ns#"
   xmlns:rdf="http://www.w3.org/1999/02/22-rdf-syntax-ns#"
   xmlns:svg="http://www.w3.org/2000/svg"
   xmlns="http://www.w3.org/2000/svg"
   viewBox="0 0 504 189.33333"
   height="189.33333"
   width="504"
   xml:space="preserve"
   id="svg2"
   version="1.1"><metadata
     id="metadata8"><rdf:RDF><cc:Work
         rdf:about=""><dc:format>image/svg+xml</dc:format><dc:type
           rdf:resource="http://purl.org/dc/dcmitype/StillImage" /></cc:Work></rdf:RDF></metadata><defs
     id="defs6" /><g
     transform="matrix(1.3333333,0,0,-1.3333333,0,189.33333)"
     id="g10"><g
       transform="scale(0.1)"
       id="g12"><path
         id="path14"
         style="fill:#7373a8;fill-opacity:1;fill-rule:evenodd;stroke:none"
         d="m 1596.41,659.02 c -42.03,16.64 -81.84,35.468 -119.53,56.492 -37.66,20.66 -72.82,43.008 -105.47,66.988 33.63,-21.988 69.64,-42.809 107.97,-62.5 38,-19.34 78.16,-36.641 120.5,-51.988 42.35,-15.672 86.17,-28.321 131.53,-38.012 21.32,-4.648 42.97,-8.48 65,-11.48 -38.01,11.992 -75.2,25.308 -111.53,40 -50.97,20 -100.15,41.48 -147.5,64.492 -94.33,46.679 -180.66,96.476 -258.98,149.488 80.31,-49.34 168.16,-96.172 263.48,-140.512 47.34,-21.988 96.36,-42.808 147.03,-62.5 35.97,-13.629 72.65,-26.328 110,-37.968 -110,58.32 -216.18,115.16 -318.52,170.468 -101.99,55.352 -198.83,108.524 -290.51,159.532 93.36,-47.692 191.68,-98.161 295,-151.52 103.01,-53.32 209.5,-109.141 319.5,-167.5 -29.65,24.691 -60,48.012 -90.98,70 -43.01,30.352 -86.17,58.52 -129.49,84.488 -87.03,52.032 -172.03,96.532 -255,133.524 84.64,-33.012 171.32,-74.653 260,-125 43.98,-25.352 87.65,-53.012 130.97,-83.012 29.34,-20.309 58.17,-41.84 86.53,-64.488 -16.37,18.008 -33.01,35.347 -50,51.988 -32.7,30.66 -66.53,58.52 -101.53,83.52 -34.65,25.308 -70,48 -105.97,68 -36.02,20 -71.68,37.66 -107.03,52.968 36.36,-13.316 72.85,-29.328 109.53,-47.968 36.99,-19.02 73.32,-40.661 108.98,-65 36.02,-24.68 70.66,-52.34 103.99,-83 21.36,-19.692 41.83,-40.86 61.52,-63.52 -25,41.988 -60.67,83.828 -106.99,125.512 -46.68,41.679 -102.03,80.347 -166.02,116.008 -51.01,27.66 -101.68,50.16 -151.99,67.5 -50.35,17 -98.36,28.64 -144.02,35 -45.67,5.98 -87,6.49 -123.99,1.49 11.99,-31.99 31.49,-64.998 58.52,-98.99 27.3,-33.668 60.97,-66.829 100.97,-99.532 40,-32.297 85.51,-62.648 136.53,-90.968 45.31,-24.692 90.47,-45.161 135.47,-61.532 45,-16.328 88.35,-28.316 130,-35.968 42.03,-7.661 80.85,-10.86 116.52,-9.5 -27.66,3.32 -55,7.968 -81.99,13.992 -46.02,10.66 -90.2,24.328 -132.5,41.008 m 167.97,607.97 c -5.67,-41.64 -4.5,-85.31 3.51,-130.97 5.35,-28.36 13.67,-56.53 25,-84.5 0.35,0 0.66,-0.19 1.02,-0.5 -5.67,41.32 -7.86,81.83 -6.53,121.48 1.68,53.01 7.85,102.5 18.52,148.52 -6.68,-46.68 -9.69,-96.18 -9.02,-148.52 0.35,-42.34 4.02,-85.66 11.01,-130 3.67,61.33 7.66,120.66 11.99,178.01 4.03,56.99 8.52,111.17 13.52,162.5 -1.02,-48.99 -2.5,-100.82 -4.49,-155.51 -1.68,-54.34 -4.03,-110.66 -7.03,-168.98 11.36,38.32 19.53,76.32 24.53,113.98 6.32,49.34 8.63,96.52 6.99,141.52 5.66,-44.68 6.48,-92.18 2.5,-142.5 -3.36,-34.68 -9.69,-70 -19.02,-106.01 11.67,22.65 21.01,45.66 28,68.98 13.01,44.03 18.17,86.68 15.51,128.01 4.65,-28.98 5,-59.34 1.02,-90.98 -4.03,-32.03 -12.86,-63.67 -26.53,-95 16.02,20.67 28.83,43.99 38.52,70 9.65,25.98 15.31,53.64 16.99,82.97 1.68,41.37 -4.65,78.67 -18.98,112.03 -14.34,32.97 -34.53,59.14 -60.51,78.48 -28.01,-20.66 -50.67,-48.01 -68.01,-81.99 -17.34,-33.99 -27.15,-71.68 -29.49,-113.01 -1.33,-28.32 1.33,-54.84 8.01,-79.49 6.64,-24.65 16.32,-46.68 28.98,-66.02 -9.34,32.7 -14.34,65 -15,97.03 -0.66,32 2.34,62.15 8.99,90.47 m 119.53,-229.49 c 20,44.34 43.16,84.69 69.49,121.02 26.33,36.32 54.49,67.65 84.49,93.98 29.65,26.02 59.84,46.02 90.51,60 11.64,-28.67 18.16,-61.48 19.49,-98.48 1.68,-37.03 -1.99,-76.83 -11.01,-119.53 -8.99,-42.3 -23.48,-85.66 -43.48,-130.002 -25.67,-56.988 -56.33,-107.148 -91.99,-150.468 -35.67,-43.36 -73.17,-77.692 -112.5,-103 16.64,15.66 32.3,31.992 46.99,48.98 25.66,29.691 48.16,60.512 67.5,92.5 19.33,32.34 35.98,64.84 50,97.5 13.67,33.012 24.84,65.51 33.48,97.5 -10.67,-31.64 -23.48,-63.32 -38.48,-95 -15.35,-31.988 -33.01,-63.48 -53.01,-94.488 -20.35,-31.332 -43.16,-61.332 -68.51,-90 -12.97,-14.653 -26.65,-28.832 -40.98,-42.5 17.65,24.328 34.14,48.976 49.49,73.976 23.67,38.672 45.16,77.703 64.49,117.032 38.01,78.64 68.17,155.32 90.51,230 -26.01,-73.36 -58.98,-148.668 -98.98,-226.008 -20,-38.321 -42.03,-76.492 -66.02,-114.492 -16.99,-27 -35.35,-53.52 -55,-79.5 43.01,97.308 84.18,191.492 123.52,282.5 38.98,90.67 75.82,177.31 110.47,260 -37.31,-79.68 -76.33,-163.86 -117,-252.5 -40.31,-88.668 -81.83,-180.661 -124.49,-276.008 7.34,28.668 15.35,56.679 23.99,83.976 14.02,44.34 29.17,87.352 45.5,129.032 33.01,83.32 68.36,160.66 106.02,231.99 -41.33,-69.34 -79.69,-145.51 -115,-228.522 -17.35,-41.328 -33.36,-84.328 -48.01,-128.976 -11.01,-32.66 -20.82,-66.332 -29.49,-101.024 0.66,20.352 1.99,40.512 3.98,60.512 4.34,39.691 11.53,78.359 21.53,116.02 10,37.339 22.14,73 36.48,106.99 13.99,33.98 29.65,66.01 46.99,96.01 -18.98,-29.02 -36.33,-60.35 -51.99,-94.02 -16.01,-33.672 -29.65,-69.141 -41.01,-106.48 -10.98,-37.661 -18.99,-76.84 -23.99,-117.5 -1.99,-15.36 -3.32,-31.02 -3.98,-47 -7.03,41.332 -6.53,87.308 1.48,137.968 8.01,51.024 24.18,103.672 48.52,158.012" /><path
         id="path16"
         style="fill:#85b0d7;fill-opacity:1;fill-rule:evenodd;stroke:none"
         d="m 1297.38,1031.99 c 16.68,-10.66 33.83,-18.47 51.53,-23.47 17.97,-5 35.66,-7.19 52.97,-6.53 -15.67,2.03 -30.67,5.86 -45,11.53 -14.34,5.66 -27.66,12.5 -40,20.5 -12,8.32 -22.82,17.31 -32.5,27 10.66,-8.68 22.18,-16.53 34.53,-23.52 12.65,-6.99 26.13,-12.81 40.47,-17.5 19.33,-6.64 39.68,-10.16 61.01,-10.51 -29.65,9.03 -56.99,20.86 -81.99,35.51 -31.02,18.67 -58.01,39.34 -81.02,61.99 24.69,-20.66 52.85,-39.33 84.5,-55.97 26.67,-14.34 55.5,-25.86 86.52,-34.5 -69.34,44.34 -132.35,86.33 -189.02,125.98 54.68,-31.99 113.67,-67.81 177.03,-107.5 -18.01,18.01 -36.53,34.34 -55.51,49.02 -26.33,20.32 -52.35,38.17 -78.01,53.48 27.34,-12.66 54.65,-28.67 81.99,-48.01 19.03,-13.32 37.35,-28.32 55,-45 -8.67,13.01 -18.32,25 -28.98,36.02 -20.67,21.33 -42.85,38.67 -66.52,51.99 22.34,-9.65 43.86,-23.32 64.53,-40.98 20.97,-18 38.47,-39.84 52.5,-65.5 -3.36,18.98 -11.02,37.34 -23.01,55 -11.99,17.65 -28.17,33.32 -48.52,46.99 -23.67,15 -48.16,24.33 -73.47,28.01 -25.67,3.98 -49.69,2.5 -72.03,-4.5 0.35,-22.03 6.67,-43.51 19.02,-64.53 12.65,-20.97 30.66,-39.33 53.98,-55 m 971.02,131.53 c -29.69,-27.66 -55.86,-60.51 -78.52,-98.52 -13.67,-23.32 -25.31,-48.01 -35,-73.98 21.68,32.34 44.85,62.34 69.5,90 34.02,38 69.17,70.97 105.5,98.98 -33.32,-30.98 -66.17,-66.17 -98.47,-105.51 -24.34,-29.65 -47.5,-61.83 -69.53,-96.478 40,42.338 78.86,83.008 116.52,121.988 38.01,39.02 74.49,75.66 109.49,110 -30.66,-35.31 -63.32,-72.15 -98.01,-110.51 -34.33,-38.63 -70.31,-78.16 -108,-118.47 29.68,20.66 57.18,42.81 82.5,66.48 35.35,32.66 66.52,66.02 93.51,100 -23.67,-36.64 -52.5,-72.34 -86.48,-106.99 -22.7,-22.66 -47.35,-43.99 -74.03,-63.99 20,9.652 38.83,20.468 56.53,32.5 36.32,25 66.48,53.32 90.47,85 -17.31,-28.67 -40.16,-55.19 -68.48,-79.53 -28.01,-24.33 -60.51,-44.138 -97.5,-59.49 26.33,4.02 52.5,13.16 78.48,27.5 26.36,14.34 50.66,33.36 73,56.99 27,29.34 46.33,60.35 58.01,93.01 11.68,32.34 15.16,62.85 10.51,91.52 -31.02,0.67 -62.85,-6.36 -95.51,-21.01 -32.66,-15 -62.66,-36.99 -90,-66.02 -21.01,-22.3 -37.34,-45.82 -48.98,-70.47 -11.68,-24.68 -18.52,-48.86 -20.51,-72.5 13.67,35.98 31.48,68.32 53.48,97 21.67,28.67 45.5,52.81 71.52,72.5 m -56.99,-243.008 c -68.36,-38.321 -127.86,-80 -178.52,-125 -50.66,-45 -90.16,-90.16 -118.51,-135.512 18,20 36.83,39.02 56.52,56.988 37.65,34.34 76.64,65.203 116.99,92.5 40.35,27.703 81.17,52.192 122.5,73.524 41.33,21.008 82.5,39.179 123.52,54.488 -40,-17.34 -80.2,-37.148 -120.51,-59.488 -40.67,-22.352 -80.67,-47.66 -120,-76.024 -39.34,-28.316 -77.5,-59.648 -114.49,-93.976 -17.03,-16.332 -33.87,-33.321 -50.51,-51.024 34.33,26.024 68.83,50.512 103.48,73.524 48.67,32.648 97.34,62.847 146.01,90.508 98.32,55.308 193.99,102.339 286.99,140.968 -91.33,-42.297 -185.31,-92.148 -281.99,-149.488 -48.01,-28.32 -96.17,-58.98 -144.49,-91.988 -32.35,-21.992 -64.49,-45.16 -96.52,-69.492 116.67,63 229.53,123.468 338.51,181.48 108.99,58.359 213.16,113.359 312.5,165 -98.01,-55.309 -201.48,-113.32 -310.51,-173.98 -108.98,-60.36 -222.15,-122.5 -339.49,-186.532 39.34,12.703 77.66,26.532 115,41.532 51.99,20.968 101.99,43.16 150,66.48 96.68,47.34 185.66,96.988 266.99,149.02 -78.98,-55.348 -166.48,-107.848 -262.5,-157.5 -48,-24.329 -98,-47.34 -150,-69.02 -36.33,-15 -73.83,-28.828 -112.5,-41.48 28.01,3.671 55.35,8.82 82,15.5 46.36,10.98 91.01,24.808 134.02,41.492 42.65,16.679 83.32,35.148 121.99,55.508 38.99,20 75.66,41.48 110,64.492 -33.32,-24.653 -68.98,-47.852 -106.99,-69.492 -38.36,-22 -78.83,-41.84 -121.52,-59.5 -42.97,-17.692 -87.97,-32.5 -135,-44.532 -42.97,-10.968 -87.66,-18.16 -133.99,-21.476 36.99,-3.992 78.32,-2.352 123.99,5 45.66,7.34 93.86,20 144.53,38.008 50.66,18.32 102.14,41.832 154.49,70.5 53.98,30.32 102.65,62.82 145.98,97.5 43.35,35 80.19,70.671 110.5,107 30,36.32 52.35,71.64 67,105.97 -37,5.67 -78.99,5.2 -125.98,-1.48 -46.99,-6.68 -96.84,-19.18 -149.49,-37.498 -52.7,-18.672 -106.02,-42.852 -160,-72.5 m -688.52,56.008 c -26.01,32 -46.99,64.81 -63.01,98.48 -15.66,33.67 -26.48,66.68 -32.5,99.02 -5.66,32.66 -5.97,63.17 -0.97,91.49 29.64,-1.99 60.15,-9.49 91.48,-22.5 31.33,-13.01 61.99,-30.82 91.99,-53.52 30.35,-22.65 58.52,-49.8 84.5,-81.48 35,-43.67 60.85,-88.32 77.5,-133.99 16.67,-45.661 23.86,-88.86 21.52,-129.532 -6.02,24.34 -13.67,47.703 -23.01,70 -13.01,31.371 -28.01,60.672 -45,88.012 -16.99,27.34 -35.51,52.66 -55.51,76.02 -20,23.32 -40.66,44.49 -61.99,63.47 20,-20.66 39.18,-42.97 57.5,-66.99 18.67,-23.98 36.02,-49.84 51.99,-77.5 15.67,-27.34 29.69,-56.48 42,-87.5 4.68,-12.34 9.17,-25.16 13.51,-38.48 -10.66,20 -21.68,39.5 -33.01,58.48 -20.66,33.359 -42.15,64.84 -64.49,94.49 -45.66,60 -93.01,113.01 -141.99,159.03 45.98,-49.03 90.66,-103.83 133.98,-164.5 21.68,-30.348 42.35,-62.18 62,-95.5 12.69,-21.02 24.68,-42.86 36.01,-65.508 -56.99,69.648 -112.34,136.679 -166.01,201.008 -53.64,64.34 -105.16,125.32 -154.5,182.97 46.68,-60.31 96.02,-123.32 148.01,-188.98 52.34,-66.022 106.84,-133.99 163.52,-203.99 -20.36,16.332 -39.85,32.968 -58.52,50 -29.34,27.308 -57.15,55.16 -83.51,83.48 -52.66,56.68 -99.15,113.36 -139.5,170 37,-58.98 81.17,-117.81 132.5,-176.48 25.35,-29.34 52.85,-57.86 82.5,-85.508 20.35,-19.34 41.84,-38.012 64.5,-56.024 -14.65,7.032 -28.83,14.692 -42.5,23.012 -30.32,18.012 -58.48,38.012 -84.5,60 -25.97,21.988 -49.65,45.16 -70.97,69.488 -21.37,24.342 -40.51,49.182 -57.5,74.532 15.31,-26.68 33.16,-52.69 53.47,-78 20.35,-25.668 43.36,-50 69.03,-73.008 25.31,-23.321 53.32,-44.492 83.98,-63.524 11.02,-6.636 22.34,-12.968 33.99,-18.976 -37.97,10 -75.67,27.648 -112.97,53.008 -37.35,25 -71.84,56.832 -103.52,95.5" /><path
         id="path18"
         style="fill:#7473a9;fill-opacity:1;fill-rule:nonzero;stroke:none"
         d="m 415.738,378.199 v -14.058 c -1.789,0.699 -3.75,1.089 -5.937,1.089 -2.813,0 -4.961,0 -6.403,0 -9.378,0 -17.269,-1.992 -23.597,-5.929 -6.25,-3.992 -9.371,-9.77 -9.371,-17.352 V 1.32813 l -45.309,7.5 L 72.9297,319.922 V 44.4492 c 0,-6.789 3.9805,-11.8711 12.0312,-15.3086 8.1289,-3.4414 17.4181,-5.1601 27.9691,-5.1601 2.808,0.3203 4.922,0.4687 6.41,0.4687 V 9.92188 H -0.0390625 V 24.4492 C 2.14844,24.1406 5.73828,23.9805 10.7383,23.9805 c 10.8203,0 20,1.7578 27.5,5.3203 7.582,3.6289 11.4101,9.4101 11.4101,17.3398 L 48.5508,339.922 c 0,8.629 -5.1524,14.848 -15.461,18.598 -10.2382,3.75 -21.25,5.621 -33.1288625,5.621 v 14.058 H 90.7383 L 340.738,66.0195 V 341.949 c 0,8.321 -5.078,14.102 -15.148,17.352 -10,3.199 -21.18,4.84 -33.442,4.84 v 14.058 z M 734.488,87.1094 729.02,9.92188 H 452.621 V 24.4492 c 1.758,-0.7383 4.84,-1.0898 9.219,-1.0898 8.941,0 17.031,2.8515 24.211,8.5898 7.187,5.8203 10.789,13.211 10.789,22.1914 V 335.082 c 0,12.188 -5.59,20.227 -16.719,24.219 -4.301,1.437 -16.019,3.039 -35.16,4.84 v 14.058 h 278.75 l 3.277,-4.367 -7.648,-63.133 h -15.629 v 28.133 c 0,6.008 -1.641,10.508 -4.84,13.438 -4.383,3.941 -11.961,5.929 -22.66,5.929 H 547.621 V 210.23 l 3.277,-1.089 h 107.5 c 7.891,0 13.122,7.738 15.622,23.281 0.71,5 1.101,12.699 1.101,23.129 H 689.18 V 147.109 h -14.059 c 0,9.371 -0.391,16.172 -1.101,20.473 -2.18,13.629 -7.418,20.469 -15.622,20.469 h -107.5 l -3.277,-4.219 V 31.0195 h 135 c 15.078,0 26.09,9.2891 32.969,27.961 2.18,6.1406 4.14,15.5078 5.93,28.1289 z" /><path
         id="path20"
         style="fill:#7473a9;fill-opacity:1;fill-rule:nonzero;stroke:none"
         d="m 1136.99,378.199 v -14.058 c -6.17,0.699 -12.19,0.078 -18.12,-1.871 -5.94,-2 -10,-5.469 -12.19,-10.469 L 966.371,6.64063 H 940.898 L 806.988,349.609 c -4.289,6.442 -9.367,10.473 -15.308,12.032 -5.942,1.64 -13.442,2.5 -22.5,2.5 v 14.058 h 139.84 v -14.058 c -1.36,0.39 -3.508,0.629 -6.399,0.629 -2.93,0 -5.082,0 -6.41,0 -9.371,0 -17.5,-1.02 -24.371,-2.969 -6.879,-2 -9.61,-4.961 -8.129,-8.91 L 967.461,77.4219 1067.3,349.609 c 2.19,6.762 -4.64,11.25 -20.46,13.442 -5.12,0.39 -13.4,0.781 -24.85,1.09 v 14.058 z" /><path
         id="path22"
         style="fill:#7473a9;fill-opacity:1;fill-rule:nonzero;stroke:none"
         d="M 1449.77,9.92188 H 1312.58 V 24.4492 c 5.82,0 11.95,0.3516 18.44,1.1016 6.44,0.6992 13.63,2.8906 21.56,6.5586 1.44,2.5 2.19,5.5117 2.19,9.0625 0,1.4492 -0.39,2.8867 -1.1,4.3789 l -34.53,87.9692 h -151.72 l -30.78,-73.9106 c -2.19,-6.4883 -3.28,-12.418 -3.28,-17.8086 3.94,-7.9297 9.3,-12.8203 16.09,-14.6914 6.88,-1.8008 16.25,-2.6602 28.13,-2.6602 V 9.92188 H 1056.64 V 24.4492 c 10.08,0 17.38,0.5117 21.88,1.5703 4.45,1.1289 9.06,4.5703 13.75,10.3086 l 156.09,346.7229 h 17.81 L 1407.73,51.0195 c 7.5,-17.7382 21.49,-26.5703 42.04,-26.5703 z m -140.32,144.68712 -65.47,156.09 -66.4,-156.09 z" /><path
         id="path24"
         style="fill:#7473a9;fill-opacity:1;fill-rule:nonzero;stroke:none"
         d="m 1643.59,378.199 h 304.53 l -5.31,-71.867 h -13.59 v 33.59 c 0,11.449 -4.84,17.187 -14.53,17.187 h -93.91 V 43.9805 c 0,-6.8711 3.48,-12.0313 10.47,-15.461 7.07,-3.4414 15.82,-5.1601 26.25,-5.1601 5.7,0 10.04,0.3515 12.97,1.0898 V 9.92188 H 1721.41 V 24.4492 c 2.18,-0.3086 5.78,-0.4687 10.78,-0.4687 9.69,0 18.36,1.4883 26.09,4.539 7.81,3.1211 11.72,7.8907 11.72,14.3711 V 357.109 h -93.91 c -3.67,0 -7.03,-1.558 -10.15,-4.687 -3.05,-3.043 -4.53,-6.832 -4.53,-11.402 v -34.688 h -12.97 z" /><path
         id="path26"
         style="fill:#7473a9;fill-opacity:1;fill-rule:nonzero;stroke:none"
         d="M 2264.84,87.1094 2259.38,9.92188 H 1982.97 V 24.4492 c 1.76,-0.7383 4.84,-1.0898 9.22,-1.0898 8.94,0 17.03,2.8515 24.22,8.5898 7.18,5.8203 10.78,13.211 10.78,22.1914 V 335.082 c 0,12.188 -5.59,20.227 -16.72,24.219 -4.3,1.437 -16.02,3.039 -35.16,4.84 v 14.058 h 278.75 l 3.28,-4.367 -7.65,-63.133 h -15.63 v 28.133 c 0,6.008 -1.64,10.508 -4.84,13.438 -4.38,3.941 -11.95,5.929 -22.66,5.929 H 2077.97 V 210.23 l 3.28,-1.089 h 107.5 c 7.89,0 13.13,7.738 15.63,23.281 0.7,5 1.09,12.699 1.09,23.129 h 14.06 V 147.109 h -14.06 c 0,9.371 -0.39,16.172 -1.09,20.473 -2.19,13.629 -7.43,20.469 -15.63,20.469 h -107.5 l -3.28,-4.219 V 31.0195 h 135 c 15.08,0 26.09,9.2891 32.97,27.961 2.18,6.1406 4.14,15.5078 5.94,28.1289 z" /><path
         id="path28"
         style="fill:#7473a9;fill-opacity:1;fill-rule:nonzero;stroke:none"
         d="M 2679.22,24.4492 V 9.92188 h -81.56 L 2411.41,188.051 2407.03,182.73 V 40.6992 c 0,-7.1797 4.57,-11.7187 13.75,-13.5898 9.14,-1.8008 20.78,-2.6602 34.84,-2.6602 V 9.92188 H 2308.75 V 24.4492 c 10.08,0 17.66,0.3516 22.66,1.1016 15.07,2.5 22.65,7.8906 22.65,16.25 V 346.332 c 0,7.887 -4.45,12.848 -13.28,14.84 -8.75,1.949 -20.16,2.969 -34.22,2.969 v 14.058 h 149.06 v -14.058 c -16.56,0 -26.83,-0.391 -30.78,-1.09 -11.87,-2.192 -17.81,-7.031 -17.81,-14.531 v -147.5 l 165.78,152.812 c 1.02,1.129 1.57,2.809 1.57,5 0,3.508 -0.9,5.309 -2.66,5.309 h -15.16 v 14.058 h 94.06 v -14.058 c -8.35,-0.309 -14.64,-0.7 -18.9,-1.09 -13.75,-1.801 -23.67,-5.551 -29.69,-11.25 L 2455.62,213.52 2654.84,27.7305 c 1.45,-1.4805 3.44,-2.461 5.94,-2.961 2.58,-0.5507 5.86,-0.789 9.84,-0.789 1.76,0 3.76,0 5.94,0 0.71,0 1.6,0.1601 2.66,0.4687 z" /><path
         id="path30"
         style="fill:#7473a9;fill-opacity:1;fill-rule:nonzero;stroke:none"
         d="m 2883.71,215.699 c 21.56,-3.98 39.1,-13.711 52.66,-29.219 13.51,-15.429 20.31,-34.14 20.31,-56.089 0,-39.3012 -16.95,-70.6215 -50.78,-94.0629 -30.63,-21.25 -66.68,-31.87888 -108.13,-31.87888 -15.11,0 -29.61,1.49219 -43.43,4.37891 -13.87,2.89067 -29.81,7.38277 -47.82,13.44137 1.45,9.3711 2.54,20.5 3.28,33.4297 0.71,13.0117 1.1,25.4727 1.1,37.3516 h 14.53 c 0,-22 8.28,-38.5625 24.84,-49.6914 14.07,-9.3789 32.82,-14.0586 56.25,-14.0586 31.25,0 56.14,7.2578 74.69,21.8711 18.52,14.5664 27.81,33.9492 27.81,58.1291 0,15.82 -4.49,29.679 -13.43,41.558 -10.12,13.321 -23.99,21.25 -41.57,23.75 l -93.9,13.442 c -19.18,2.89 -33.71,12.379 -43.6,28.429 -9.92,16.02 -14.84,35.04 -14.84,57.04 0,33.75 14.22,61.789 42.66,84.21 26.64,20.821 57.42,31.25 92.34,31.25 15.82,0 31.76,-2.101 47.81,-6.25 16.02,-4.058 31.96,-9.921 47.81,-17.5 -5.74,-21.558 -9.68,-41.871 -11.87,-60.929 h -10.31 c 0,11.129 -1.8,23 -5.32,35.621 -7.92,9.687 -17.77,17.027 -29.53,22.027 -11.68,5.082 -24.53,7.66 -38.59,7.66 -23.75,0 -44.8,-8.277 -63.13,-24.839 -18.35,-16.571 -27.5,-35.321 -27.5,-56.25 0,-13.36 2.23,-25.161 6.72,-35.469 4.46,-10.242 12.27,-16.371 23.44,-18.442 z" /><path
         id="path32"
         style="fill:#7473a9;fill-opacity:1;fill-rule:nonzero;stroke:none"
         d="m 2989.38,378.199 h 304.53 l -5.32,-71.867 H 3275 v 33.59 c 0,11.449 -4.84,17.187 -14.53,17.187 h -93.91 V 43.9805 c 0,-6.8711 3.48,-12.0313 10.47,-15.461 7.07,-3.4414 15.82,-5.1601 26.25,-5.1601 5.7,0 10.04,0.3515 12.97,1.0898 V 9.92188 H 3067.19 V 24.4492 c 2.19,-0.3086 5.78,-0.4687 10.78,-0.4687 9.69,0 18.36,1.4883 26.09,4.539 7.82,3.1211 11.72,7.8907 11.72,14.3711 V 357.109 h -93.9 c -3.68,0 -7.04,-1.558 -10.16,-4.687 -3.05,-3.043 -4.53,-6.832 -4.53,-11.402 v -34.688 h -12.97 z" /><path
         id="path34"
         style="fill:#7473a9;fill-opacity:1;fill-rule:nonzero;stroke:none"
         d="m 3361.72,403.52 h 53.2813 V 9.922 H 3361.72 Z m -4.84,101.71 h 53.7422 V 451.1714 H 3356.88 Z" /><path
         id="path36"
         style="fill:#7473a9;fill-opacity:1;fill-rule:nonzero;stroke:none"
         d="m 3759.1,87.1094 h 15.63 L 3764.41,9.92188 H 3489.1 V 24.4492 c 9.69,-1.0508 18.75,0.9414 27.19,5.9414 8.51,5.0782 12.81,11.9492 12.81,20.6289 V 344.77 c 0,6.75 -8.12,11.949 -24.37,15.621 -5.43,1.019 -13.56,2.269 -24.38,3.75 v 14.058 h 150.16 V 365.23 c -15.43,-1.48 -26.72,-3.281 -33.91,-5.46 -12.62,-3.559 -18.9,-8.75 -18.9,-15.629 V 52.1094 c 0,-5.4297 1.6,-10.3086 4.84,-14.6875 3.2,-4.3008 7.54,-6.4024 12.97,-6.4024 h 100.31 c 17.27,0 31.33,5 42.19,15 10.82,10.0703 17.85,23.7813 21.09,41.0899 z" /></g></g></svg>